<?xml version="1.0" encoding="utf-8"?>
<!-- Svg Vector Icons : http://www.onlinewebfonts.com/icon -->
<!DOCTYPE svg PUBLIC "-//W3C//DTD SVG 1.1//EN" "http://www.w3.org/Graphics/SVG/1.1/DTD/svg11.dtd">
<svg fill="#60b200" version="1.1" xmlns="http://www.w3.org/2000/svg" xmlns:xlink="http://www.w3.org/1999/xlink" x="0px" y="0px" viewBox="0 0 1000 1000" enable-background="new 0 0 1000 1000" xml:space="preserve">
<metadata> Svg Vector Icons : http://www.onlinewebfonts.com/icon </metadata>
<g><path d="M161.7,922.2c8.8-7,17.7-13.8,26.5-20.7c8.2-7.6,15.5-16,23.1-24.2C130.2,797.2,77.8,683.4,77.8,567.9c0-224.7,173.7-422.3,422.3-422.3c248.6,0,424.2,206.7,422.3,429C921.4,699,872,794.3,790.3,875.8l56.2,38C935,825.3,990,702.8,990,567.6C990,297,770.8,77.8,500.2,77.8C229.5,77.8,10,297.5,10,567.9C10,707.3,68.2,833,161.7,922.2z"/><path d="M507.8,538c-1.1,0.5-2.3,1.2-3.4,1.7c-16,6.4-29.2,19.4-34.8,37c-9.6,30.9,7.6,64,38.5,73.6c16.5,5.1,33.4,2.5,47.2-5.4c2.2-0.8,4.2-1.7,6.5-3.4l243.1-173c7.1-5.1,25-23.9,21.9-32.6c-3.7-10.2-29.8-5.9-40.2-2.2L507.8,538z"/><path d="M478.7,185.2h42.1v117.8h-42.1V185.2z"/><path d="M116.8,530.7h117.8v42.1H116.8V530.7z"/><path d="M764.4,530.7h117.8v42.1H764.4V530.7z"/></g>
</svg>